<svg xmlns="http://www.w3.org/2000/svg" viewBox="-117 -1665 1731 1870">
<rect x="-117" y="-1665" width="1731" height="1870" fill="#F5F0E8"/>
<g transform="scale(1,-1)">
<path d="M64 730Q64 973 156.0 1143.0Q248 1313 406.0 1398.5Q564 1484 761 1484Q1038 1484 1214.0 1347.0Q1390 1210 1429 904H1006Q979 1014 914.5 1065.0Q850 1116 757 1116Q679 1116 616.0 1069.5Q553 1023 516.5 935.5Q480 848 480 730Q480 612 516.5 524.5Q553 437 616.0 390.5Q679 344 757 344Q855 344 921.5 401.5Q988 459 1012 584H1433Q1399 262 1221.5 119.0Q1044 -24 761 -24Q564 -24 406.0 61.5Q248 147 156.0 317.0Q64 487 64 730Z" fill="#1A1208"/>
</g>
</svg>